<?xml version="1.0" standalone="no"?>
<!DOCTYPE svg PUBLIC "-//W3C//DTD SVG 20010904//EN"
 "http://www.w3.org/TR/2001/REC-SVG-20010904/DTD/svg10.dtd">
<svg version="1.0" xmlns="http://www.w3.org/2000/svg"
 width="512.000000pt" height="512.000000pt" viewBox="0 0 512.000000 512.000000"
 preserveAspectRatio="xMidYMid meet">
<metadata>
Created by potrace 1.11, written by Peter Selinger 2001-2013
</metadata>
<g transform="translate(0.000000,512.000000) scale(0.100000,-0.100000)"
fill="#000000" stroke="none">
<path d="M2125 5105 c-113 -21 -116 -22 -205 -44 -314 -80 -607 -216 -868
-405 -81 -59 -83 -62 -102 -126 -37 -125 -102 -355 -105 -373 -2 -9 -6 -21 -9
-25 -3 -5 22 -94 55 -198 32 -104 69 -220 80 -259 32 -106 64 -200 104 -305
42 -110 112 -302 127 -345 5 -16 14 -39 19 -50 5 -11 24 -63 43 -115 19 -52
35 -86 35 -74 1 11 5 24 9 30 5 5 17 32 27 59 64 180 157 409 167 413 4 2 8
10 8 17 0 8 14 43 30 78 17 36 30 67 30 70 0 3 20 47 44 98 57 122 126 278
126 283 0 17 152 328 242 496 181 336 335 644 338 675 5 44 -1 65 -25 88 -30
28 -71 31 -170 12z"/>
<path d="M2688 5028 l-177 -91 -114 -221 c-63 -121 -148 -286 -190 -366 -41
-80 -128 -264 -192 -410 -65 -146 -122 -271 -127 -277 -15 -19 74 16 296 116
48 22 283 114 516 201 91 35 206 78 255 97 108 42 302 113 330 120 11 3 99 30
195 60 96 30 234 72 305 93 360 106 406 133 375 214 -25 67 -388 288 -635 386
-160 64 -374 126 -500 146 -27 4 -57 9 -65 10 -86 16 -89 15 -272 -78z"/>
<path d="M4080 4271 c-12 -7 -197 -65 -340 -106 -80 -23 -412 -129 -435 -139
-16 -7 -143 -55 -282 -107 l-252 -93 47 -19 c26 -10 115 -43 197 -74 83 -31
182 -71 222 -89 40 -19 74 -34 77 -34 3 0 29 -11 58 -24 29 -13 86 -38 127
-56 40 -17 105 -46 145 -65 39 -18 98 -44 131 -58 147 -62 419 -194 655 -318
389 -204 543 -279 570 -279 46 0 79 20 92 56 6 18 15 31 19 28 4 -2 6 8 3 23
-55 351 -156 645 -318 928 -68 119 -171 269 -202 296 -20 16 -444 139 -479
139 -11 0 -27 -5 -35 -9z"/>
<path d="M536 4166 c-47 -20 -193 -240 -296 -446 -76 -150 -160 -396 -194
-566 -3 -11 -11 -53 -20 -94 -38 -180 -40 -166 69 -383 l98 -193 121 -63 c295
-154 570 -292 671 -336 61 -27 194 -86 297 -132 103 -45 191 -83 194 -83 4 0
2 6 -4 13 -5 6 -13 23 -17 37 -4 14 -20 52 -35 85 -87 193 -185 436 -295 735
-32 85 -79 211 -105 280 -26 69 -57 152 -68 185 -20 57 -162 509 -166 530 -18
77 -105 343 -127 387 -25 48 -72 65 -123 44z"/>
<path d="M3650 3252 c0 -6 25 -68 56 -139 94 -216 181 -436 279 -703 51 -140
117 -318 145 -395 29 -77 69 -196 90 -265 21 -69 59 -192 85 -275 158 -509
154 -499 194 -519 24 -12 34 -13 83 -8 37 4 211 270 310 472 122 251 223 591
226 765 2 70 2 70 -96 260 l-97 189 -105 54 c-58 30 -177 91 -265 137 -319
166 -352 182 -500 249 -82 38 -184 84 -225 103 -41 19 -93 42 -115 51 -22 8
-46 20 -52 25 -9 6 -13 6 -13 -1z"/>
<path d="M51 2294 c-45 -32 -51 -67 -31 -184 43 -248 113 -471 216 -685 84
-176 252 -440 299 -471 18 -11 279 -90 332 -100 12 -2 34 -9 48 -14 20 -8 29
-6 45 10 11 11 26 20 33 20 7 0 60 15 118 34 57 19 151 48 209 66 213 65 288
90 405 135 66 25 213 81 327 123 115 42 208 80 208 83 0 4 -57 28 -127 54
-138 51 -217 83 -303 122 -30 13 -86 38 -125 55 -38 16 -78 34 -89 40 -10 5
-111 50 -225 100 -225 98 -468 215 -656 316 -306 164 -606 312 -632 312 -16 0
-39 -7 -52 -16z"/>
<path d="M3810 2297 c0 -2 -29 -81 -65 -175 -66 -174 -92 -236 -220 -517 -40
-88 -87 -194 -105 -235 -68 -157 -220 -469 -331 -680 -247 -471 -290 -561
-284 -599 7 -48 42 -82 86 -83 28 -2 92 7 203 28 115 21 351 95 486 152 219
93 548 293 581 353 7 15 104 341 113 384 1 6 6 20 10 32 4 14 2 31 -8 45 -9
13 -29 66 -45 118 -114 373 -149 483 -198 615 -31 83 -82 222 -115 310 -33 88
-66 181 -75 208 -9 26 -20 47 -25 47 -4 0 -8 -2 -8 -3z"/>
<path d="M3196 1459 c-27 -11 -67 -28 -90 -38 -345 -156 -1296 -509 -1491
-555 -11 -2 -178 -55 -444 -139 -183 -58 -221 -82 -221 -137 0 -45 13 -64 78
-112 286 -213 636 -369 1002 -447 128 -27 226 -36 242 -23 7 6 86 47 175 91
97 48 168 90 177 104 36 58 379 733 439 862 50 111 186 415 184 414 -1 0 -24
-9 -51 -20z"/>
</g>
</svg>
